<?xml version="1.0" encoding="UTF-8"?>
<svg width="80px" height="80px" viewBox="0 0 80 80" version="1.1" xmlns="http://www.w3.org/2000/svg" xmlns:xlink="http://www.w3.org/1999/xlink">
    <!-- Generator: Sketch 63.1 (92452) - https://sketch.com -->
    <title>401k</title>
    <desc>Created with Sketch.</desc>
    <g id="401k" stroke="none" stroke-width="1" fill="none" fill-rule="evenodd">
        <g id="Group-13-Copy" transform="translate(12.000000, 15.000000)" fill="#393947">
            <path d="M54.7464728,27.3652952 C53.0311786,27.3652952 51.3476491,26.4282363 49.997649,24.6891186 L51.8002962,23.2914715 C52.8802962,24.6891186 54.127061,25.3005892 55.3261787,25.0226481 C56.2632375,24.8002951 57.049414,24.0141186 57.2241199,23.1088244 C57.5258846,21.6000009 56.4776493,20.7344126 55.882061,20.4802949 C55.5485316,20.3452949 55.2467669,20.3452949 55.1911787,20.4326479 C54.9211787,20.8297067 54.802061,21.1711773 54.8814728,21.3617656 C54.9926492,21.6714714 55.5802963,21.9732362 55.9614728,22.0764715 L55.3976493,24.2841186 C55.1911787,24.2285304 53.3408845,23.7282362 52.7532374,22.1797068 C52.4991197,21.5285303 52.3958844,20.4802949 53.3011786,19.1541184 C54.0158845,18.0979419 55.3738257,17.7961772 56.7635317,18.3838243 C58.4708847,19.0985302 59.9479436,21.1076479 59.4635318,23.5535303 C59.1061788,25.3323539 57.6529435,26.8094128 55.8423552,27.2382364 C55.477061,27.3255893 55.1117669,27.3652952 54.7464728,27.3652952" id="Fill-121"></path>
            <path d="M14.10353,19.5352949 C13.6508829,19.5352949 13.2776476,19.9085302 13.2776476,20.3611773 C13.2776476,20.8138244 13.6508829,21.1791185 14.10353,21.1791185 C14.556177,21.1791185 14.9294124,20.8138244 14.9294124,20.3611773 C14.9294124,19.9085302 14.556177,19.5352949 14.10353,19.5352949 M14.10353,23.4582362 C12.396177,23.4582362 10.9985298,22.0685303 10.9985298,20.3611773 C10.9985298,18.6538243 12.396177,17.2561772 14.10353,17.2561772 C15.810883,17.2561772 17.2085301,18.6538243 17.2085301,20.3611773 C17.2085301,22.0685303 15.810883,23.4582362 14.10353,23.4582362" id="Fill-122"></path>
            <path d="M11.6179416,44.6691194 L17.9152948,47.2817666 L20.4008832,42.9061782 L36.878825,42.628237 L38.8879427,47.2500019 L45.2567665,44.6850018 L43.0888252,39.7138251 L44.2164723,39.2929427 C50.7202961,36.8708838 49.8388255,25.467354 49.815002,25.1417657 C48.6317666,13.83353 39.8011781,11.633824 36.8470603,11.2129416 C35.5685308,12.6820593 33.7023543,13.5476476 31.7329424,13.5476476 C29.7794129,13.5476476 27.9767658,12.7297064 26.6902952,11.2844122 L21.2108832,11.3876475 L20.9091185,10.6808828 C19.4002949,7.21058852 17.4229419,5.52705904 16.0094124,4.72500019 L17.8835301,11.9673534 L16.7400007,12.2294123 C10.7444122,13.6032358 7.30588264,20.1785302 7.26617676,20.2500008 L6.90088263,20.9567655 L2.38235304,20.392942 L2.9064707,33.3450013 L7.61558854,32.431766 L7.7664709,33.6388249 C7.99676502,35.4891191 10.8635298,38.181178 12.6185299,39.4358839 L13.3173535,39.9441192 L11.6179416,44.6691194 Z M37.688825,50.1882373 L35.3938249,44.9311783 L21.7350009,45.1614724 L18.9000008,50.1564726 L8.74323564,45.9397077 L10.5935298,40.7700016 C9.31500037,39.753531 6.73411791,37.4902956 5.81294141,35.1000014 L0.738529441,36.0847073 L-9.02807277e-14,17.7961772 L5.63823552,18.5029419 C6.71029438,16.7002948 9.92647098,12.0229417 15.1041182,10.3235298 L12.8329417,1.53264712 L14.50853,1.75500007 C14.7229418,1.78676478 19.5273537,2.50941186 22.6800009,9.07676507 L27.7861776,8.98941212 L28.1355894,9.45794155 C28.9932364,10.6094122 30.3035306,11.2685299 31.7329424,11.2685299 C33.194119,11.2685299 34.5679426,10.5458828 35.4097073,9.34676508 L35.7908838,8.80676506 L36.4500014,8.87029447 C38.8005898,9.08470624 50.6170608,10.8873534 52.0782374,24.9194128 L52.0861785,24.9352951 C52.1338256,25.4514716 53.1105903,37.1885309 46.1064724,40.9367663 L48.2823549,45.9238254 L37.688825,50.1882373 Z" id="Fill-123"></path>
            <polygon id="Fill-124" points="26.2614716 16.6844124 37.371178 16.6844124 37.371178 14.4052947 26.2614716 14.4052947"></polygon>
            <path d="M31.7329424,2.27911774 C29.2552953,2.27911774 27.2382364,4.29617664 27.2382364,6.7738238 C27.2382364,9.25147096 29.2552953,11.2685299 31.7329424,11.2685299 C34.2105896,11.2685299 36.2276485,9.25147096 36.2276485,6.7738238 C36.2276485,4.29617664 34.2105896,2.27911774 31.7329424,2.27911774 M31.7329424,13.5476476 C28.0005893,13.5476476 24.9591186,10.5061769 24.9591186,6.7738238 C24.9591186,3.04147071 28.0005893,-2.69431547e-13 31.7329424,-2.69431547e-13 C35.4732367,-2.69431547e-13 38.5067662,3.04147071 38.5067662,6.7738238 C38.5067662,10.5061769 35.4732367,13.5476476 31.7329424,13.5476476" id="Fill-125"></path>
        </g>
    </g>
</svg>