<?xml version="1.0" encoding="UTF-8"?>
<svg width="80px" height="80px" viewBox="0 0 80 80" version="1.1" xmlns="http://www.w3.org/2000/svg" xmlns:xlink="http://www.w3.org/1999/xlink">
    <!-- Generator: Sketch 63.1 (92452) - https://sketch.com -->
    <title>Competitive compensation packages</title>
    <desc>Created with Sketch.</desc>
    <g id="Competitive-compensation-packages" stroke="none" stroke-width="1" fill="none" fill-rule="evenodd">
        <g id="Group-6-Copy" transform="translate(9.000000, 10.000000)" fill="#393947">
            <path d="M3.20828836,50.364002 L8.50478857,56.0520022 C9.1869886,56.7900023 10.3272886,56.8620023 11.1021887,56.2230022 L13.9641888,53.8560021 C14.6544888,53.2890021 15.5400889,53.0010021 16.4220889,52.9920021 L34.5417896,53.2260021 C35.1843896,53.2260021 35.8260897,53.0910021 36.4065897,52.8300021 C47.6898901,47.6280019 55.8861905,43.5420017 56.8023905,42.6510017 C57.5142905,41.7600017 55.8492905,40.1130016 55.7781904,40.0410016 C55.4586904,39.7260016 54.3768904,40.0230016 53.7423904,40.3650016 L53.6442904,40.4190016 L41.1738899,46.0440018 C40.6095898,46.3410018 39.9651898,46.4940018 39.3414898,46.4850018 L32.1549895,46.9980019 L32.0856895,46.9890019 C31.3737895,46.9710019 30.7104895,46.6380019 30.2649894,46.0800018 C29.5287894,45.1620018 29.4036894,43.8930017 29.9463894,42.8400017 C30.3054894,42.1470017 30.9093895,41.6340017 31.6482895,41.3820016 L36.7908897,39.6630016 C37.2768897,39.5010016 37.6818897,39.3210016 38.0274897,39.0960016 C39.2262898,38.3130015 39.2226898,37.6200015 38.8293898,36.7470015 C38.1183897,35.1630014 36.0969897,35.7930014 36.0105897,35.8200014 L30.0201894,37.5930015 C29.3073894,37.8360015 28.5054894,37.9800015 27.6900893,37.9980015 L15.4113888,38.8350015 C14.0847888,38.8620015 12.8814887,39.3480016 11.9553887,40.2030016 L3.35588837,47.6370019 C2.96348835,47.9700019 2.73128834,48.4470019 2.70248834,48.9690019 C2.67458834,49.482002 2.85368835,49.977002 3.20828836,50.364002 M9.89618863,59.3550024 C8.65868858,59.3550024 7.42838853,58.8600023 6.52748849,57.8880023 L1.23098828,52.2000021 C0.374188248,51.273002 -0.0614117696,50.076002 0.00698823311,48.8160019 C0.0753882358,47.5650019 0.637888258,46.4130018 1.5900883,45.5940018 L10.1580886,38.1870015 C11.5377887,36.9180015 13.3737888,36.1800014 15.2943888,36.1440014 L27.5712893,35.2980014 C28.1724894,35.2890014 28.6989894,35.1900014 29.2002894,35.0190014 L35.2149896,33.2370013 C36.7062897,32.7600013 39.9399898,32.6340013 41.2908899,35.6310014 C42.3006899,37.8720015 41.6463899,39.9600016 39.4980898,41.3550016 C38.9571898,41.7060017 38.3514898,41.9940017 37.6467897,42.2280017 L32.5050895,43.9470017 C32.4357895,43.9740017 32.3781895,44.0190017 32.3439895,44.0820018 C32.3133895,44.1450018 32.3043895,44.2170018 32.3178895,44.2710018 L39.2847898,43.7850017 L39.3549898,43.7850017 C39.5718898,43.7850017 39.7464898,43.7490017 39.9165898,43.6500017 L40.0173898,43.6050017 L52.4886903,37.9800015 C53.0178903,37.6920015 55.8330905,36.3150014 57.6663905,38.1150015 C59.2782906,39.6900016 60.5607906,42.2820017 58.8723906,44.3790018 C58.5348906,44.8020018 57.5088905,46.0800018 37.5360897,55.2780022 C36.5928897,55.7190022 35.5173896,55.9440022 34.5075896,55.9260022 L16.3878889,55.6920022 C16.1277889,55.6920022 15.8811889,55.7820022 15.6831889,55.9440022 L12.8202887,58.3020023 C11.9661887,59.0130023 10.9284887,59.3550024 9.89618863,59.3550024" id="Fill-108"></path>
            <path d="M33.5274896,9.00000036 C30.4638894,9.00000036 28.8582894,10.1610004 28.8582894,10.5570004 C28.8582894,10.9620004 30.4638894,12.1140005 33.5274896,12.1140005 C36.5910897,12.1140005 38.1957898,10.9620004 38.1957898,10.5570004 C38.1957898,10.1610004 36.5910897,9.00000036 33.5274896,9.00000036 M33.5274896,14.8140006 C29.3262894,14.8140006 26.1582893,12.9870005 26.1582893,10.5570004 C26.1582893,8.12700032 29.3262894,6.30000025 33.5274896,6.30000025 C37.7286897,6.30000025 40.8966899,8.12700032 40.8966899,10.5570004 C40.8966899,12.9870005 37.7286897,14.8140006 33.5274896,14.8140006" id="Fill-109"></path>
            <path d="M33.5274896,19.6380008 C29.0427894,19.6380008 25.6596893,17.6040007 25.6596893,14.9220006 L28.3596894,14.9220006 C28.3596894,15.6330006 30.3207894,16.9380007 33.5274896,16.9380007 C36.7341897,16.9380007 38.6952898,15.6330006 38.6952898,14.9220006 L41.3952899,14.9220006 C41.3952899,17.6040007 38.0121897,19.6380008 33.5274896,19.6380008" id="Fill-110"></path>
            <path d="M33.5274896,24.093001 C29.0427894,24.093001 25.6596893,22.0680009 25.6596893,19.3770008 L28.3596894,19.3770008 C28.3596894,20.0880008 30.3207894,21.3930009 33.5274896,21.3930009 C36.7341897,21.3930009 38.6952898,20.0880008 38.6952898,19.3770008 L41.3952899,19.3770008 C41.3952899,22.0680009 38.0121897,24.093001 33.5274896,24.093001" id="Fill-111"></path>
            <path d="M33.5274896,2.70000011 C26.6361893,2.70000011 21.0282891,8.30700033 21.0282891,15.1920006 C21.0282891,22.0860009 26.6361893,27.6930011 33.5274896,27.6930011 C40.4187898,27.6930011 46.0266901,22.0860009 46.0266901,15.1920006 C46.0266901,8.30700033 40.4187898,2.70000011 33.5274896,2.70000011 M33.5274896,30.3930012 C25.1466892,30.3930012 18.328289,23.5800009 18.328289,15.1920006 C18.328289,6.81300027 25.1466892,2.04636316e-13 33.5274896,2.04636316e-13 C41.9082899,2.04636316e-13 48.7266902,6.81300027 48.7266902,15.1920006 C48.7266902,23.5800009 41.9082899,30.3930012 33.5274896,30.3930012" id="Fill-112"></path>
        </g>
    </g>
</svg>