<?xml version="1.0" encoding="UTF-8"?>
<svg width="80px" height="80px" viewBox="0 0 80 80" version="1.1" xmlns="http://www.w3.org/2000/svg" xmlns:xlink="http://www.w3.org/1999/xlink">
    <!-- Generator: Sketch 63.1 (92452) - https://sketch.com -->
    <title>dental care</title>
    <desc>Created with Sketch.</desc>
    <g id="dental-care" stroke="none" stroke-width="1" fill="none" fill-rule="evenodd">
        <path d="M33.4585918,15 C31.675146,15 30.0978271,15.4492546 29.0940787,15.8356136 C24.4427804,17.5787217 20.6787239,21.7927302 20.1499636,25.8539922 C19.6212033,29.9062691 20.5891035,32.5119461 21.5211556,35.0277721 C22.2112326,36.8876863 22.9192337,38.8104962 23.1432847,41.5150092 C23.8602478,50.4372065 24.9625786,56.2865019 28.2247609,57.9487441 C29.156813,58.4249541 30.0888651,58.6675516 30.976107,58.6675516 C31.6392979,58.6675516 32.2666406,58.5327752 32.8402111,58.2722075 C33.960466,57.7510721 34.6684671,56.6009802 34.6684671,55.325097 L34.6684671,46.6814376 C34.6684671,43.7343271 36.8731288,41.3442924 39.5886267,41.3442924 C42.3041246,41.3442924 44.5087862,43.7343271 44.5087862,46.6814376 L44.5087862,55.3520523 C44.4998242,56.8345926 45.5573448,58.2003267 47.1525878,58.7574025 C47.6275759,58.9191342 48.1473742,59 48.6582104,59 C50.0294024,59 52.0458612,58.4429242 53.8561932,55.7563815 C56.0787789,52.4498673 55.86369,47.5799469 55.6844492,43.6714315 C55.6127529,42.0271595 55.5410566,40.4637533 55.6934112,39.4574229 C55.7919936,38.792526 56.2400956,37.7143149 56.7150837,36.5732081 C58.4985295,32.2603635 61.1871413,25.7641413 55.881614,19.7800694 C53.4708255,17.0575863 50.2534534,15.6199714 46.5879793,15.6199714 C43.6305064,15.6199714 41.040477,16.5544211 39.669285,17.1654074 C37.8948013,15.7457627 35.770798,15 33.4585918,15 M33.4585918,17.6955279 C35.1165691,17.6955279 36.9627492,18.1986931 38.6117644,19.8249949 L39.2391072,20.4359812 L39.9829564,20.0046968 C40.0367287,19.9777415 43.0210877,18.3154993 46.5879793,18.3154993 C48.9898059,18.3154993 51.6515315,19.061262 53.8741173,21.5681029 C58.0593896,26.2942618 55.9353863,31.4067797 54.2325988,35.5129671 C53.6769524,36.8787012 53.1840402,38.0557484 53.0316856,39.0620788 C52.8434827,40.3110067 52.9151791,41.9283235 52.9958374,43.7972228 C53.1571541,47.3103941 53.354319,51.6861344 51.6336074,54.2468858 C50.4685423,55.9630386 49.3572495,56.3044721 48.6582104,56.3044721 C48.3803872,56.3044721 48.1652983,56.2505616 48.0398297,56.2056361 C47.5110694,56.0259342 47.197398,55.6305902 47.197398,55.3610374 L47.197398,46.6814376 C47.197398,42.2517868 43.7828611,38.6487645 39.5886267,38.6487645 C35.3943923,38.6487645 31.9798554,42.2517868 31.9798554,46.6814376 L31.9798554,55.325097 C31.9798554,55.5497243 31.8723109,55.7473964 31.7289183,55.8192771 C31.5048673,55.9181131 31.2539302,55.9720237 30.976107,55.9720237 C30.519043,55.9720237 29.9992447,55.8282622 29.4346362,55.5407392 C26.862531,54.2289157 26.1276437,45.171942 25.8229344,41.299367 C25.5719973,38.2264652 24.7564517,36.0251174 24.0394886,34.0843373 C23.1432847,31.6763324 22.3725493,29.5828058 22.8116892,26.2044109 C23.214981,23.122524 26.3248086,19.7531142 30.0350929,18.3514397 C30.8954486,18.0279763 32.114286,17.6955279 33.4585918,17.6955279" id="Fill-120-Copy" fill="#393947"></path>
    </g>
</svg>