<?xml version="1.0" encoding="UTF-8"?>
<svg width="80px" height="80px" viewBox="0 0 80 80" version="1.1" xmlns="http://www.w3.org/2000/svg" xmlns:xlink="http://www.w3.org/1999/xlink">
    <!-- Generator: Sketch 63.1 (92452) - https://sketch.com -->
    <title>disability insurance</title>
    <desc>Created with Sketch.</desc>
    <g id="disability-insurance" stroke="none" stroke-width="1" fill="none" fill-rule="evenodd">
        <g id="Group-12-Copy" transform="translate(23.000000, 15.000000)" fill="#393947">
            <path d="M12.1679438,2.28105145 C10.228304,2.28105145 8.63994364,3.84736186 8.62017467,5.79384469 C8.61029019,6.74427577 8.97069365,7.63387925 9.63371437,8.31058617 C10.2974954,8.9872931 11.1848179,9.36746553 12.1322076,9.37506897 C13.0910024,9.39027587 13.9752835,9.02531034 14.6519904,8.36381031 C15.3286974,7.70231029 15.7065887,6.8127068 15.7164732,5.86227573 L15.7164732,5.86227573 C15.7362422,3.90818945 14.1608077,2.3038618 12.2044403,2.28105145 L12.1679438,2.28105145 Z M12.1702248,11.6561035 L12.1101576,11.6561035 C10.552211,11.6408967 9.09462986,11.0174139 8.00429534,9.90731037 C6.9154815,8.79720688 6.32317286,7.32974131 6.3391401,5.77103435 C6.37183493,2.5547756 9.03532297,-0.00758657081 12.2272507,2.76473099e-13 C15.4427491,0.0304306721 18.030963,2.67643078 17.9975078,5.88508608 C17.9815406,7.44379304 17.3603388,8.90365516 16.2487146,9.99094831 C15.1507767,11.070638 13.7046007,11.6561035 12.1702248,11.6561035 L12.1702248,11.6561035 Z" id="Fill-84"></path>
            <polygon id="Fill-85" points="43.7519088 42.7770186 37.7444241 42.716191 28.6157237 30.7103457 15.7126715 30.5810871 11.7193403 13.7014312 13.9395473 13.1767933 17.5215319 28.3152594 29.7547203 28.4369146 38.8849414 40.4427599 43.7754795 40.495984"></polygon>
            <polygon id="Fill-86" points="14.2573714 17.8757245 24.4102563 21.1071901 23.7191029 23.2817764 13.566218 20.0503108"></polygon>
            <path d="M17.481994,49.3463981 C17.4219267,49.3463981 17.3626198,49.3463981 17.3033129,49.3463981 C7.66518153,49.2475533 -0.0964187771,41.3247599 0.000905364667,31.6835871 C0.063253643,25.5476041 3.40192791,19.8222073 8.71521778,16.7352072 L9.86029714,18.7121038 C5.23968143,21.3885177 2.33592442,26.37638 2.28193994,31.7063974 C2.19678131,40.0853978 8.94560227,46.9741222 17.3261233,47.0653636 C22.5040718,47.1109843 27.2965254,44.5714324 30.1592238,40.2526736 L32.0600859,41.5072427 C28.8020082,46.4266739 23.3617408,49.3463981 17.481994,49.3463981" id="Fill-87"></path>
        </g>
    </g>
</svg>