<?xml version="1.0" encoding="UTF-8"?>
<svg width="80px" height="80px" viewBox="0 0 80 80" version="1.1" xmlns="http://www.w3.org/2000/svg" xmlns:xlink="http://www.w3.org/1999/xlink">
    <!-- Generator: Sketch 63.1 (92452) - https://sketch.com -->
    <title>free soda and snacks</title>
    <desc>Created with Sketch.</desc>
    <g id="free-soda-and-snacks" stroke="none" stroke-width="1" fill="none" fill-rule="evenodd">
        <g id="Group-Copy" transform="translate(6.000000, 17.000000)" stroke="#393947" stroke-width="2.15999987">
            <g id="Group-19">
                <g id="Group-17" transform="translate(0.000000, 10.200000)">
                    <rect id="Rectangle" x="0.188159686" y="24.7999985" width="39.1999977" height="6.39999962" rx="2.39999986"></rect>
                    <rect id="Rectangle" transform="translate(19.788159, 22.399999) scale(1, -1) translate(-19.788159, -22.399999) " x="0.188159686" y="19.9999988" width="39.1999977" height="4.79999971" rx="2.39999986"></rect>
                    <path d="M20.3999988,20 C11.6870486,20.1401604 6.04338977,19.3811975 3.46902241,17.7231114 C-0.392528629,15.2359822 -1.3900519,11.5871836 3.46902241,6.74070095 C8.32809673,1.89421829 14.2675308,0 22.7022576,0 C31.1369843,0 40.8992271,6.74070095 40.1472642,13.3483438 C39.6459556,17.753439 33.0635338,19.9706577 20.3999988,20 Z" id="Path-2"></path>
                </g>
                <g id="Group-18" transform="translate(44.199997, 0.000000)">
                    <polyline id="Path-3" points="1.78815959 15.999999 5.06044809 39.9999976 17.9415186 39.9999976 20.9881584 15.999999"></polyline>
                    <rect id="Rectangle" x="0.188159686" y="11.1999993" width="23.1999986" height="5.59999967" rx="2.59999985"></rect>
                    <path d="M15.3881588,11.1999993 C15.9711957,7.34456362 16.9628973,4.55756589 18.3632637,2.83900613 C19.7636301,1.12044637 21.1719283,0.174110989 22.5881584,0" id="Path-4"></path>
                </g>
            </g>
        </g>
    </g>
</svg>