<?xml version="1.0" encoding="UTF-8"?>
<svg width="80px" height="80px" viewBox="0 0 80 80" version="1.1" xmlns="http://www.w3.org/2000/svg" xmlns:xlink="http://www.w3.org/1999/xlink">
    <!-- Generator: Sketch 63.1 (92452) - https://sketch.com -->
    <title>gym</title>
    <desc>Created with Sketch.</desc>
    <g id="gym" stroke="none" stroke-width="1" fill="none" fill-rule="evenodd">
        <g id="Group-9-Copy" transform="translate(10.000000, 26.000000)" fill="#393947">
            <path d="M18.7822132,16.0025631 L41.2021141,16.0025631 L41.2021141,11.8224848 L18.7822132,11.8224848 L18.7822132,16.0025631 Z M43.6498049,18.4494382 L16.3361538,18.4494382 L16.3361538,9.37968787 L43.6498049,9.37968787 L43.6498049,18.4494382 Z" id="Fill-79"></path>
            <path d="M53.4373052,21.0023446 L57.8212898,21.0023446 L57.8212898,7.34062529 L53.4373052,7.34062529 L53.4373052,21.0023446 Z M58.2796711,23.4492197 L52.9781084,23.4492197 C51.8819083,23.4492197 50.9904302,22.5520321 50.9904302,21.4590946 L50.9904302,6.87571902 C50.9904302,5.78278148 51.8819083,4.89375019 52.9781084,4.89375019 L58.2796711,4.89375019 C59.3758711,4.89375019 60.2681649,5.78278148 60.2681649,6.87571902 L60.2681649,21.4590946 C60.2681649,22.5520321 59.3758711,23.4492197 58.2796711,23.4492197 L58.2796711,23.4492197 Z" id="Fill-80"></path>
            <path d="M2.4468751,21.0023446 L6.42304713,21.0023446 L6.42304713,7.34062529 L2.4468751,7.34062529 L2.4468751,21.0023446 Z M6.9793034,23.4492197 L1.89061883,23.4492197 C0.848250034,23.4492197 0,22.6009696 0,21.5569696 L0,6.78600027 C0,5.74200023 0.848250034,4.89375019 1.89061883,4.89375019 L6.9793034,4.89375019 C8.02167219,4.89375019 8.86992223,5.74200023 8.86992223,6.78600027 L8.86992223,21.5569696 C8.86992223,22.6009696 8.02167219,23.4492197 6.9793034,23.4492197 L6.9793034,23.4492197 Z" id="Fill-81"></path>
            <path d="M43.6498049,25.8960948 L50.9904302,25.8960948 L50.9904302,2.4468751 L43.6498049,2.4468751 L43.6498049,25.8960948 Z M52.0099614,28.3429699 L42.6302736,28.3429699 C41.8431954,28.3429699 41.2029298,27.6986261 41.2029298,26.9156261 L41.2029298,1.42734381 C41.2029298,0.636187525 41.8431954,0 42.6302736,0 L52.0099614,0 C52.796224,0 53.4373052,0.636187525 53.4373052,1.42734381 L53.4373052,26.9156261 C53.4373052,27.6986261 52.796224,28.3429699 52.0099614,28.3429699 L52.0099614,28.3429699 Z" id="Fill-82"></path>
            <path d="M8.86992223,25.8960948 L16.2105475,25.8960948 L16.2105475,2.4468751 L8.86992223,2.4468751 L8.86992223,25.8960948 Z M18.6574226,28.3429699 L6.42304713,28.3429699 L6.42304713,0 L18.6574226,0 L18.6574226,28.3429699 Z" id="Fill-83"></path>
        </g>
    </g>
</svg>