<?xml version="1.0" encoding="UTF-8"?>
<svg width="80px" height="80px" viewBox="0 0 80 80" version="1.1" xmlns="http://www.w3.org/2000/svg" xmlns:xlink="http://www.w3.org/1999/xlink">
    <!-- Generator: Sketch 63.1 (92452) - https://sketch.com -->
    <title>Health Insurance</title>
    <desc>Created with Sketch.</desc>
    <g id="Health-Insurance" stroke="none" stroke-width="1" fill="none" fill-rule="evenodd">
        <g id="Group-7-Copy-2" transform="translate(13.000000, 14.000000)" fill="#393947">
            <path d="M2.61996022,43.4089636 L51.3800398,43.4089636 L51.3800398,11.5970822 L2.61996022,11.5970822 L2.61996022,43.4089636 Z M54,46 L0,46 L0,9 L54,9 L54,46 Z" id="Fill-75"></path>
            <polygon id="Fill-76" points="25 35 28 35 28 19 25 19"></polygon>
            <polygon id="Fill-77" points="19 29 35 29 35 26 19 26"></polygon>
            <path d="M19.6671437,8.46261694 L34.3334409,8.46261694 C34.1392358,7.31233662 33.6388822,5.59537408 32.3455953,4.32668255 C31.090471,3.0918228 29.273085,2.47439292 26.996052,2.54205647 C24.6053794,2.60126207 22.7523749,3.30327139 21.487074,4.63116852 C20.3201476,5.84911239 19.8537162,7.405374 19.6671437,8.46261694 L19.6671437,8.46261694 Z M36.9802267,11 L17.0330788,11 L17.0008526,9.76514024 C16.9966123,9.60443932 16.9287678,5.72224324 19.6442462,2.88037421 C21.3920916,1.04500046 23.8446723,0.0807949021 26.9341438,0.00467341037 C29.9422019,-0.0714480814 32.384606,0.782804215 34.1511086,2.53359853 C37.0361984,5.39238344 37.0022761,9.57906549 36.999732,9.7566823 L36.9802267,11 Z" id="Fill-78"></path>
        </g>
    </g>
</svg>