<?xml version="1.0" encoding="UTF-8"?>
<svg width="80px" height="80px" viewBox="0 0 80 80" version="1.1" xmlns="http://www.w3.org/2000/svg" xmlns:xlink="http://www.w3.org/1999/xlink">
    <!-- Generator: Sketch 63.1 (92452) - https://sketch.com -->
    <title>home internet</title>
    <desc>Created with Sketch.</desc>
    <g id="home-internet" stroke="none" stroke-width="1" fill="none" fill-rule="evenodd">
        <g id="Group-11-Copy" transform="translate(11.000000, 16.000000)" fill="#393947">
            <polygon id="Fill-113" points="49.815554 48.9984019 35.7173774 48.9984019 35.7173774 35.7427214 21.8826249 35.7427214 21.8826249 48.9984019 7.78368031 48.9984019 7.78368031 15.5443206 9.9770884 15.5443206 9.9770884 46.8019219 19.6899848 46.8019219 19.6899848 33.5462413 37.9107855 33.5462413 37.9107855 46.8019219 47.6221459 46.8019219 47.6221459 15.5443206 49.815554 15.5443206"></polygon>
            <polygon id="Fill-114" points="56.3235862 22.3872009 28.8000011 2.69568011 1.27641605 22.3872009 -2.18278737e-14 20.6054408 28.8000011 -8.59472527e-14 57.6000023 20.6054408"></polygon>
            <polygon id="Fill-115" points="47.6221459 10.0454404 49.815554 10.0454404 49.815554 4.09267216 47.6221459 4.09267216"></polygon>
            <path d="M30.9857292,26.8262411 C30.9857292,25.605121 29.9934732,24.614401 28.7700491,24.614401 C27.5466251,24.614401 26.5543691,25.605121 26.5543691,26.8262411 C26.5543691,28.0550411 27.5466251,29.0457612 28.7700491,29.0457612 C29.9934732,29.0457612 30.9857292,28.0550411 30.9857292,26.8262411" id="Fill-116"></path>
            <path d="M34.1452814,22.9862409 C32.6131213,21.5654409 30.6163212,20.7820808 28.5227531,20.7820808 C26.6119691,20.7820808 24.817921,21.4118409 23.3349129,22.6099209 L21.9033609,20.8358408 C23.7696009,19.3305608 26.120449,18.5011207 28.5227531,18.5011207 C31.1930892,18.5011207 33.7405453,19.4995208 35.6958734,21.3196808 L34.1452814,22.9862409 Z" id="Fill-117"></path>
            <path d="M38.1388815,18.6086407 C35.4739214,16.1280006 32.0017933,14.7686406 28.3622411,14.7686406 C25.040641,14.7686406 21.9210249,15.8668806 19.3420808,17.9481607 L17.9105287,16.1740806 C20.8565768,13.8009605 24.568321,12.4876805 28.3622411,12.4876805 C32.5793293,12.4876805 36.6021135,14.0697606 39.6894736,16.9344007 L38.1388815,18.6086407 Z" id="Fill-118"></path>
        </g>
    </g>
</svg>