<?xml version="1.0" encoding="UTF-8"?>
<svg width="80px" height="80px" viewBox="0 0 80 80" version="1.1" xmlns="http://www.w3.org/2000/svg" xmlns:xlink="http://www.w3.org/1999/xlink">
    <!-- Generator: Sketch 63.1 (92452) - https://sketch.com -->
    <title>HSA Plan</title>
    <desc>Created with Sketch.</desc>
    <g id="HSA-Plan" stroke="none" stroke-width="1" fill="none" fill-rule="evenodd">
        <g id="Group-16-Copy" transform="translate(9.000000, 17.000000)" fill="#393947">
            <path d="M27.419957,2.26482362 C24.9015716,2.26482362 22.8533833,4.24244135 22.8533833,6.6795885 C22.8533833,9.11673566 24.9015716,11.0943534 27.419957,11.0943534 C29.9383424,11.0943534 31.9873513,9.11673566 31.9873513,6.6795885 C31.9873513,4.24244135 29.9383424,2.26482362 27.419957,2.26482362 M27.419957,13.359177 C23.6526362,13.359177 20.5885596,10.3640298 20.5885596,6.6795885 C20.5885596,2.99514718 23.6526362,2.81327913e-13 27.419957,2.81327913e-13 C31.1872777,2.81327913e-13 34.2521749,2.99514718 34.2521749,6.6795885 C34.2521749,10.3640298 31.1872777,13.359177 27.419957,13.359177" id="Fill-88"></path>
            <path d="M51.0463344,7.81200031 C48.8652108,7.81200031 47.0902783,9.52702979 47.0902783,11.6359416 C47.0902783,13.7448535 48.8652108,15.459883 51.0463344,15.459883 C53.227458,15.459883 55.0023904,13.7448535 55.0023904,11.6359416 C55.0023904,9.52702979 53.227458,7.81200031 51.0463344,7.81200031 M51.0463344,17.7247066 C47.6162754,17.7247066 44.8254547,14.9921477 44.8254547,11.6359416 C44.8254547,8.27973562 47.6162754,5.54717669 51.0463344,5.54717669 C54.4763933,5.54717669 57.267214,8.27973562 57.267214,11.6359416 C57.267214,14.9921477 54.4763933,17.7247066 51.0463344,17.7247066" id="Fill-89"></path>
            <path d="M36.605622,23.0175009 C35.178619,23.0175009 34.0174866,24.133501 34.0174866,25.5038834 C34.0174866,26.8824717 35.178619,27.9984717 36.605622,27.9984717 C38.032625,27.9984717 39.1937574,26.8824717 39.1937574,25.5038834 C39.1937574,24.133501 38.032625,23.0175009 36.605622,23.0175009 M36.605622,30.2632953 C33.9296837,30.2632953 31.752663,28.1297658 31.752663,25.5038834 C31.752663,22.8862068 33.9296837,20.7526773 36.605622,20.7526773 C39.2815604,20.7526773 41.4585811,22.8862068 41.4585811,25.5038834 C41.4585811,28.1297658 39.2815604,30.2632953 36.605622,30.2632953" id="Fill-90"></path>
            <path d="M30.7400571,40.4467957 L42.4720076,40.4467957 L42.4720076,39.4867075 C42.4720076,36.3520603 39.840381,33.8082366 36.605622,33.8082366 C33.3716837,33.8082366 30.7400571,36.3520603 30.7400571,39.4867075 L30.7400571,40.4467957 Z M44.7368312,42.7116193 L28.4752335,42.7116193 L28.4752335,39.4867075 C28.4752335,35.1047661 32.1227483,31.543413 36.605622,31.543413 C41.0893163,31.543413 44.7368312,35.1047661 44.7368312,39.4867075 L44.7368312,42.7116193 Z" id="Fill-91"></path>
            <path d="M12.3662652,24.4207069 C6.79611203,24.4207069 2.26482362,28.81906 2.26482362,34.2267367 C2.26482362,39.6344133 6.79611203,44.0327665 12.3662652,44.0327665 C17.9364184,44.0327665 22.4677068,39.6344133 22.4677068,34.2267367 C22.4677068,28.81906 17.9364184,24.4207069 12.3662652,24.4207069 M12.3662652,46.2975901 C5.54717669,46.2975901 -2.34682871e-13,40.8817075 -2.34682871e-13,34.2267367 C-2.34682871e-13,27.5717658 5.54717669,22.1558832 12.3662652,22.1558832 C19.1853537,22.1558832 24.7325304,27.5717658 24.7325304,34.2267367 C24.7325304,40.8817075 19.1853537,46.2975901 12.3662652,46.2975901" id="Fill-92"></path>
            <path d="M61.5432995,42.9413841 L17.7288095,42.9413841 L19.6416008,41.0130016 C21.4633067,39.1748839 22.4668862,36.7623544 22.4668862,34.2267367 C22.4668862,30.1320012 19.7999743,26.439354 15.8299683,25.0279422 L14.9470153,24.7161186 L15.0897977,23.7888539 C15.9850595,17.9544713 21.2089244,13.5561182 27.238607,13.5561182 C29.9309571,13.5561182 32.4920131,14.4013241 34.6452367,15.9932653 L33.2970101,17.8149713 C31.5376689,16.510236 29.4418865,15.8209418 27.238607,15.8209418 C22.6236185,15.8209418 18.5904272,18.9637949 17.5047889,23.2554715 C21.8645744,25.2084716 24.7317098,29.5001482 24.7317098,34.2267367 C24.7317098,36.5407956 24.0612892,38.7645898 22.8115333,40.6765604 L59.2784759,40.6765604 L59.2784759,27.3994423 C59.2784759,23.5508833 56.0478199,20.4162361 52.0769932,20.4162361 C49.9401814,20.4162361 47.9223548,21.3435008 46.5413048,22.943648 L44.8238135,21.474795 C46.6348519,19.3658831 49.2787873,18.1514125 52.0769932,18.1514125 C57.2967552,18.1514125 61.5432995,22.3035891 61.5432995,27.3994423 L61.5432995,42.9413841 Z" id="Fill-93"></path>
            <polygon id="Fill-94" points="11.2338534 39.9708545 13.498677 39.9708545 13.498677 28.4850805 11.2338534 28.4850805"></polygon>
            <polygon id="Fill-95" points="6.46705614 35.3591485 18.2646537 35.3591485 18.2646537 33.0943248 6.46705614 33.0943248"></polygon>
        </g>
    </g>
</svg>