<?xml version="1.0" encoding="UTF-8"?>
<svg width="80px" height="80px" viewBox="0 0 80 80" version="1.1" xmlns="http://www.w3.org/2000/svg" xmlns:xlink="http://www.w3.org/1999/xlink">
    <!-- Generator: Sketch 63.1 (92452) - https://sketch.com -->
    <title>International travel</title>
    <desc>Created with Sketch.</desc>
    <g id="International-travel" stroke="none" stroke-width="1" fill="none" fill-rule="evenodd">
        <path d="M34.4165932,48.8710609 L36.488648,48.8710609 L52.929083,37.4475201 L53.041086,38.0123331 C54.1691158,37.7736797 56.5131779,37.2725077 61.3853068,36.2065227 C69.6495255,34.4007123 69.7935293,31.3857248 69.7857669,31.0913857 C68.4814946,27.0422337 61.1693011,28.4264232 61.0972992,28.4343783 L26.0003705,37.582757 L17.3841425,29.9219842 L15.0720813,30.8686426 L20.8482341,42.1728566 L16.2081114,43.6445523 L15.9441044,45.6890161 L40.760761,41.3773454 L34.4165932,48.8710609 Z M37.1846664,51.0746269 L29.6404668,51.0746269 L35.1366122,44.5912106 L13.3520358,48.3778439 L14.192058,41.9660237 L17.6881505,40.8602631 L12,29.7310615 L17.8241541,27.3604382 L26.5923861,35.1484928 L60.601286,26.2864981 C61.0492979,26.1989918 70.121538,24.4965979 71.9295858,30.5345278 L71.9535864,30.6299892 C72.0655894,31.1709368 72.7216068,35.9917346 61.8573193,38.362358 C56.2411707,39.5874452 53.8251067,40.1124826 52.7130773,40.2874951 L37.1846664,51.0746269 Z" id="Fill-119-Copy" fill="#393947"></path>
    </g>
</svg>