<?xml version="1.0" encoding="UTF-8"?>
<svg width="80px" height="80px" viewBox="0 0 80 80" version="1.1" xmlns="http://www.w3.org/2000/svg" xmlns:xlink="http://www.w3.org/1999/xlink">
    <!-- Generator: Sketch 63.1 (92452) - https://sketch.com -->
    <title>mobile phone data plan</title>
    <desc>Created with Sketch.</desc>
    <g id="mobile-phone-data-plan" stroke="none" stroke-width="1" fill="none" fill-rule="evenodd">
        <g id="Group-10-Copy" transform="translate(24.000000, 11.000000)" fill="#393947">
            <path d="M2.70000011,56.0520022 L29.6928012,56.0520022 L29.6928012,2.70000011 L2.70000011,2.70000011 L2.70000011,56.0520022 Z M30.7890012,58.7520023 L1.60200006,58.7520023 C0.720000029,58.7520023 7.16227106e-13,58.0320023 7.16227106e-13,57.1500023 L7.16227106e-13,1.60200006 C7.16227106e-13,0.720000029 0.720000029,3.06954474e-13 1.60200006,3.06954474e-13 L30.7890012,3.06954474e-13 C31.6710013,3.06954474e-13 32.3910013,0.720000029 32.3910013,1.60200006 L32.3910013,57.1500023 C32.3910013,58.0320023 31.6710013,58.7520023 30.7890012,58.7520023 L30.7890012,58.7520023 Z" id="Fill-127"></path>
            <polygon id="Fill-128" points="12.3660005 9.11700036 20.0133008 9.11700036 20.0133008 6.41700025 12.3660005 6.41700025"></polygon>
            <path d="M19.4670008,49.239002 C19.4670008,47.4300019 18.0000007,45.9630018 16.1910006,45.9630018 C14.3910006,45.9630018 12.9240005,47.4300019 12.9240005,49.239002 C12.9240005,51.039002 14.3910006,52.5060021 16.1910006,52.5060021 C18.0000007,52.5060021 19.4670008,51.039002 19.4670008,49.239002" id="Fill-129"></path>
        </g>
    </g>
</svg>