<?xml version="1.0" encoding="UTF-8"?>
<svg width="80px" height="80px" viewBox="0 0 80 80" version="1.1" xmlns="http://www.w3.org/2000/svg" xmlns:xlink="http://www.w3.org/1999/xlink">
    <!-- Generator: Sketch 63.1 (92452) - https://sketch.com -->
    <title>referral insentive</title>
    <desc>Created with Sketch.</desc>
    <g id="referral-insentive" stroke="none" stroke-width="1" fill="none" fill-rule="evenodd">
        <g id="Group-8-Copy" transform="translate(23.000000, 13.000000)" fill="#393947">
            <path d="M16.9996102,2.33891309 C8.916103,2.33891309 2.33875221,8.91125889 2.33875221,16.9961018 C2.33875221,25.0809447 8.916103,31.6610869 16.9996102,31.6610869 C25.083897,31.6610869 31.6612478,25.0809447 31.6612478,16.9961018 C31.6612478,8.91125889 25.083897,2.33891309 16.9996102,2.33891309 M16.9996102,34 C7.62667095,34 0,26.3751433 0,16.9961018 C0,7.62485668 7.62667095,0 16.9996102,0 C26.3733291,0 34,7.62485668 34,16.9961018 C34,26.3751433 26.3733291,34 16.9996102,34" id="Fill-96"></path>
            <polygon id="Fill-97" points="27 49 16.6020642 40.5517346 6 48.9604852 6 30 8.36442109 30 8.36442109 44.0606493 16.6186151 37.5169975 24.6355789 44.0290375 24.6355789 30 27 30"></polygon>
            <path d="M16.6182315,10.0858147 L18.3038079,15.1660443 C18.3201426,15.2194401 18.3675907,15.249952 18.4220394,15.249952 L23.8754665,15.249952 C23.9960315,15.249952 24.0458132,15.4025114 23.9485834,15.4711632 L19.5366823,18.6138878 C19.4931233,18.6520277 19.4744552,18.7054235 19.4915676,18.7511913 L21.1763663,23.8390489 C21.2137025,23.9534685 21.0830256,24.0450042 20.9850179,23.9763524 L16.5731168,20.8336278 C16.5295579,20.8031159 16.4704421,20.8031159 16.4268832,20.8336278 L12.0149821,23.9763524 C11.9169744,24.0450042 11.7862975,23.9534685 11.8236337,23.8390489 L13.5084324,18.7511913 C13.5255448,18.7054235 13.5068767,18.6520277 13.4633177,18.6138878 L9.05141663,15.4711632 C8.95418679,15.4025114 9.00396847,15.249952 9.12453347,15.249952 L14.5779606,15.249952 C14.6324093,15.249952 14.6798574,15.2194401 14.6961921,15.1660443 L16.3817685,10.0858147 C16.4191048,9.9713951 16.5808952,9.9713951 16.6182315,10.0858147" id="Fill-98"></path>
        </g>
    </g>
</svg>