<?xml version="1.0" encoding="UTF-8"?>
<svg width="58px" height="58px" viewBox="0 0 58 58" version="1.1" xmlns="http://www.w3.org/2000/svg" xmlns:xlink="http://www.w3.org/1999/xlink">
    <!-- Generator: Sketch 63.1 (92452) - https://sketch.com -->
    <title>Group Copy</title>
    <desc>Created with Sketch.</desc>
    <g id="Page-1" stroke="none" stroke-width="1" fill="none" fill-rule="evenodd">
        <g id="option_2" transform="translate(-1349.000000, -559.000000)">
            <g id="Group-Copy" transform="translate(1349.000000, 559.000000)">
                <rect id="Rectangle-Copy-25" fill="#FF5400" x="0" y="0" width="58" height="58" rx="29"></rect>
                <path d="M28.2848469,15.4424451 C29.7358999,15.4513225 32.8620984,15.5060666 37.6634423,15.6066773 C41.3930176,15.6848289 44.4060547,18.673996 44.513868,22.4028317 L45,39.2162154 L45,44.4411564 L38.3526048,39.5955006 L20.3143356,39.8261792 C16.5354064,39.8745089 13.4003949,36.9145197 13.2317908,33.1390444 C13.0827824,29.8023668 13.0056174,27.7913592 13.0002957,27.1060213 L13,27.0353281 C13,26.5664522 13.0458162,25.3858983 13.1374485,23.4936664 L13.1531496,23.171705 C13.3586744,18.982913 16.7640998,15.663838 20.9567882,15.5659412 C24.1085167,15.4923502 26.2860763,15.451309 27.4894671,15.4428178 L28.2848469,15.4424451 Z M36,26 C34.8954305,26 34,26.8954305 34,28 C34,29.1045695 34.8954305,30 36,30 C37.1045695,30 38,29.1045695 38,28 C38,26.8954305 37.1045695,26 36,26 Z M29,26 C27.8954305,26 27,26.8954305 27,28 C27,29.1045695 27.8954305,30 29,30 C30.1045695,30 31,29.1045695 31,28 C31,26.8954305 30.1045695,26 29,26 Z M22,26 C20.8954305,26 20,26.8954305 20,28 C20,29.1045695 20.8954305,30 22,30 C23.1045695,30 24,29.1045695 24,28 C24,26.8954305 23.1045695,26 22,26 Z" id="Combined-Shape" fill="#FFFFFF"></path>
            </g>
        </g>
    </g>
</svg>