<?xml version="1.0" encoding="UTF-8"?>
<svg width="20px" height="20px" viewBox="0 0 20 20" version="1.1" xmlns="http://www.w3.org/2000/svg" xmlns:xlink="http://www.w3.org/1999/xlink">
    <!-- Generator: Sketch 55 (78076) - https://sketchapp.com -->
    <title>signin</title>
    <desc>Created with Sketch.</desc>
    <g id="signin" stroke="none" stroke-width="1" fill="none" fill-rule="evenodd">
        <path d="M10,12 C7.23857625,12 5,9.76142375 5,7 C5,4.23857625 7.23857625,2 10,2 C12.7614237,2 15,4.23857625 15,7 C15,9.76142375 12.7614237,12 10,12 Z M10,10 C11.6568542,10 13,8.65685425 13,7 C13,5.34314575 11.6568542,4 10,4 C8.34314575,4 7,5.34314575 7,7 C7,8.65685425 8.34314575,10 10,10 Z M4,18.3514502 L2,18.3514502 C2,15.3959259 4.39592589,13 7.35145025,13 L13.501675,13 C16.4571994,13 18.8531253,15.3959259 18.8531253,18.3514502 L16.8531253,18.3514502 C16.8531253,16.5004954 15.3526299,15 13.501675,15 L7.35145025,15 C5.50049539,15 4,16.5004954 4,18.3514502 Z" id="Combined-Shape" fill="#283A5E" fill-rule="nonzero"></path>
    </g>
</svg>