<?xml version="1.0" encoding="UTF-8"?>
<svg width="22px" height="21px" viewBox="0 0 22 21" version="1.1" xmlns="http://www.w3.org/2000/svg" xmlns:xlink="http://www.w3.org/1999/xlink">
    <!-- Generator: Sketch 53.2 (72643) - https://sketchapp.com -->
    <title>search_close</title>
    <desc>Created with Sketch.</desc>
    <g id="search_close" stroke="none" stroke-width="1" fill="none" fill-rule="evenodd">
        <g id="Group" transform="translate(4.000000, 4.000000)" fill="#283A5E" fill-rule="nonzero">
            <path d="M13.4993392,-0.712163234 C13.8926561,-1.09987481 14.5258048,-1.0953308 14.9135163,-0.702013908 C15.3012279,-0.308697015 15.2966839,0.324451659 14.903367,0.712163234 L1.11868058,14.3003985 C0.725363681,14.6881101 0.0922150082,14.6835661 -0.295496568,14.2902492 C-0.683208143,13.8969323 -0.678664136,13.2637836 -0.285347242,12.8760721 L13.4993392,-0.712163234 Z" id="Line-6"></path>
            <path d="M13.4993392,-0.712163234 C13.8926561,-1.09987481 14.5258048,-1.0953308 14.9135163,-0.702013908 C15.3012279,-0.308697015 15.2966839,0.324451659 14.903367,0.712163234 L1.11868058,14.3003985 C0.725363681,14.6881101 0.0922150082,14.6835661 -0.295496568,14.2902492 C-0.683208143,13.8969323 -0.678664136,13.2637836 -0.285347242,12.8760721 L13.4993392,-0.712163234 Z" id="Line-6" transform="translate(7.309010, 6.794118) scale(-1, 1) translate(-7.309010, -6.794118) "></path>
        </g>
    </g>
</svg>